<svg width="1583" height="850" viewBox="0 0 1583 850" fill="none" xmlns="http://www.w3.org/2000/svg">
<g clip-path="url(#clip0_190_564)">
<rect width="1583" height="850" fill="white"/>
<path d="M1.19044 493.587C-5.88392 315.383 134.778 -38.3751 612.39 -27.7666L649 1.64607C459.747 18.4068 261.721 82.6678 157.865 188.348C43.8507 304.363 7.79397 411.827 1.19044 493.587L0 523C0 513.619 0.365271 503.804 1.19044 493.587Z" fill="#00B2D1" fill-opacity="0.42"/>
<path d="M1583.23 218.873C1601.33 435.469 1462.3 873.577 921.599 885.79L878.533 851.905C1091.6 821.541 1311.89 732.883 1423.35 598.752C1545.71 451.502 1580.4 318.765 1583.23 218.873L1582.91 183C1583.44 194.421 1583.59 206.391 1583.23 218.873Z" fill="#00B2D1" fill-opacity="0.42"/>
</g>
<defs>
<clipPath id="clip0_190_564">
<rect width="1583" height="850" fill="white"/>
</clipPath>
</defs>
</svg>
