<svg width="1440" height="1000" viewBox="0 0 1440 1000" fill="none" xmlns="http://www.w3.org/2000/svg">
<g clip-path="url(#clip0_120_1004)">
<rect width="1440" height="1000" fill="white"/>
<rect width="1440" height="1000" fill="white"/>
<path d="M1.19044 493.587C-5.88392 315.383 134.778 -38.3751 612.39 -27.7666L649 1.64607C459.747 18.4068 261.721 82.6678 157.865 188.348C43.8507 304.363 7.79397 411.827 1.19044 493.587L0 523C0 513.619 0.365271 503.804 1.19044 493.587Z" fill="#00B2D1" fill-opacity="0.42"/>
<path d="M1442.23 481.873C1460.33 698.469 1321.3 1136.58 780.599 1148.79L737.533 1114.91C950.598 1084.54 1170.89 995.883 1282.35 861.752C1404.71 714.502 1439.4 581.765 1442.23 481.873L1441.91 446C1442.44 457.421 1442.59 469.391 1442.23 481.873Z" fill="#00B2D1" fill-opacity="0.42"/>
</g>
<defs>
<clipPath id="clip0_120_1004">
<rect width="1440" height="1000" fill="white"/>
</clipPath>
</defs>
</svg>
